<svg version="1.1" id="Layer_1" xmlns="http://www.w3.org/2000/svg" x="0" y="0" viewBox="0 0 16 16" xml:space="preserve"><style>.st0{fill:#3f3f3f}</style><g id="Design"><g id="Home" transform="translate(-843 -39)"><g id="bell-53" transform="translate(843 39)"><path class="st0" d="M8 16c-1.4 0-2.5-1.1-2.5-2.5 0-.3.2-.5.5-.5s.5.2.5.5c0 .8.7 1.5 1.5 1.5s1.5-.7 1.5-1.5c0-.3.2-.5.5-.5s.5.2.5.5c0 1.4-1.1 2.5-2.5 2.5z" id="Path"/><path class="st0" d="M15.5 12H.5c-.3 0-.5-.2-.5-.5s.2-.5.5-.5h15c.3 0 .5.2.5.5s-.2.5-.5.5z" id="Path_1_"/><path class="st0" d="M15 12h-.5c-.1 0-.2 0-.3-.1-1.2-.3-2.2-1.3-2.2-2.4V5c0-2.2-1.8-4-4-4S4 2.8 4 5v4.5C4 10.9 2.9 12 1.5 12c-.3 0-.5-.2-.5-.5s.2-.5.5-.5c.8 0 1.5-.7 1.5-1.5V5c0-2.8 2.2-5 5-5s5 2.2 5 5v4.5c0 .8 1.1 1.5 2 1.5.3 0 .5.2.5.5s-.2.5-.5.5z" id="Path_2_"/></g></g></g></svg>