<svg version="1.1" id="Layer_1" xmlns="http://www.w3.org/2000/svg" x="0" y="0" viewBox="0 0 23 23" xml:space="preserve"><style>.st0{fill:#795e00}</style><g id="Design"><g id="Home" transform="translate(-32 -513)"><g id="Icons_x2F_cart" transform="translate(32 514)"><g id="cart-simple"><path class="st0" d="M6.8 21c-1.4 0-2.6-1-2.6-2.3s1.2-2.3 2.6-2.3 2.6 1 2.6 2.3S8.2 21 6.8 21zm0-3.6c-.9 0-1.6.6-1.6 1.3S5.9 20 6.8 20s1.6-.6 1.6-1.3-.7-1.3-1.6-1.3z" id="Oval"/><path class="st0" d="M19.3 21c-1.4 0-2.6-1-2.6-2.3s1.2-2.3 2.6-2.3 2.6 1 2.6 2.3-1.1 2.3-2.6 2.3zm0-3.6c-.9 0-1.6.6-1.6 1.3s.7 1.3 1.6 1.3 1.6-.6 1.6-1.3-.7-1.3-1.6-1.3z" id="Oval_1_"/><path class="st0" d="M20.8 14.7H5.3L3.2 1H.5V0h3.6l.7 4.6h18.3l-2.3 10.1zm-14.6-1H20l1.9-8.1h-17l1.3 8.1z" id="Path"/></g></g></g></g></svg>