<svg version="1.1" id="Layer_1" xmlns="http://www.w3.org/2000/svg" x="0" y="0" viewBox="0 0 25 17" xml:space="preserve"><style>.st0{fill:#795e00}</style><g id="Design"><g id="Home" transform="translate(-31 -362)"><g id="Icons_x2F_contact" transform="translate(32 360)"><g id="badge-13" transform="translate(0 2.74)"><path class="st0" d="M13.2 6.6h6.2v1h-6.2z" id="Path"/><path class="st0" d="M13.2 9.7h6.2v1h-6.2z" id="Path_1_"/><path class="st0" d="M7 8.2c-1.1 0-2-.8-2-1.7 0-1 .9-1.7 2-1.7s2 .8 2 1.7c0 1-.9 1.7-2 1.7zm0-2.4c-.5 0-1 .3-1 .7 0 .4.5.7 1 .7s1-.3 1-.7c0-.4-.4-.7-1-.7z" id="Oval"/><path class="st0" d="M11.3 12.6H2.8v-.5c0-1.6 1.6-3 3.5-3h1.5c1.9 0 3.5 1.3 3.5 3v.5zm-7.4-1h6.3c-.3-.8-1.2-1.5-2.4-1.5H6.3c-1.1 0-2.1.6-2.4 1.5z" id="Path_2_"/><path class="st0" d="M23.1 15.7H-.1V-.2h5.5v.5c0 .7.8 1.4 1.7 1.4S8.8 1.1 8.8.3v-.5h5.5v.5c0 .7.8 1.4 1.7 1.4 1 0 1.7-.6 1.7-1.4v-.5h5.5v15.9zm-22.2-1h21.3V.8h-3.5c-.3 1.1-1.4 1.9-2.7 1.9s-2.4-.8-2.7-1.9H9.7C9.4 1.9 8.4 2.7 7 2.7c-1.3 0-2.4-.8-2.7-1.9H.9v13.9z" id="Path_3_"/></g></g></g></g></svg>