<svg version="1.1" id="Layer_1" xmlns="http://www.w3.org/2000/svg" x="0" y="0" viewBox="0 0 16 12" xml:space="preserve"><style>.st0{fill:#c1c1c1}</style><g id="Symbols"><g id="Element_x2F_style-item-01" transform="translate(-193 -197)"><g id="eye-19" transform="translate(193 198)"><path class="st0" d="M8 10.5c-4.2 0-7.8-5-7.9-5.2-.1-.2-.1-.4 0-.6C.2 4.5 3.8-.5 8-.5s7.8 5 7.9 5.2c.1.2.1.4 0 .6-.1.2-3.7 5.2-7.9 5.2zM1.1 5C1.9 6 4.8 9.5 8 9.5S14.1 6 14.9 5C14.1 4 11.2.5 8 .5S1.9 4 1.1 5z" id="Path"/><path class="st0" d="M8 6.5C6.1 6.5 4.5 4.9 4.5 3S6.1-.5 8-.5s3.5 1.6 3.5 3.5S9.9 6.5 8 6.5zm0-6C6.6.5 5.5 1.6 5.5 3S6.6 5.5 8 5.5s2.5-1.1 2.5-2.5S9.4.5 8 .5z" id="Oval"/></g></g></g></svg>