<svg version="1.1" id="Layer_1" xmlns="http://www.w3.org/2000/svg" x="0" y="0" viewBox="0 0 21 19" xml:space="preserve"><style>.st0{fill:#999}</style><g id="Symbols"><g id="Element_x2F_style-item-04" transform="translate(-23 -22)"><g id="Icons_x2F_contact-02" transform="translate(24 20)"><g id="badge-13" transform="translate(0 3)"><path class="st0" d="M10.8 7.3h5.3v1h-5.3z" id="Path"/><path class="st0" d="M10.8 10.7h5.3v1h-5.3z" id="Path_1_"/><path class="st0" d="M5.8 9c-1 0-1.7-.8-1.7-1.9 0-1 .8-1.9 1.7-1.9s1.7.8 1.7 1.9c0 1-.7 1.9-1.7 1.9zm0-2.7c-.4 0-.7.4-.7.9 0 .4.3.8.7.8.4 0 .7-.4.7-.9s-.3-.8-.7-.8z" id="Oval"/><path class="st0" d="M9.4 13.7H2.3v-.5c0-1.8 1.3-3.2 3-3.2h1.2c1.6 0 3 1.4 3 3.2v.5zm-6.1-1h5c-.2-1-1-1.7-1.9-1.7H5.2c-.9 0-1.7.7-1.9 1.7z" id="Path_2_"/><path class="st0" d="M19.2 17.1H-.2V-.2h4.7v.5c0 .8.6 1.5 1.3 1.5.7 0 1.3-.7 1.3-1.5v-.5h4.7v.5c0 .8.6 1.5 1.3 1.5s1.3-.7 1.3-1.5v-.5h4.7v17.3zm-18.4-1h17.4V.8h-2.7c-.2 1.2-1.2 2-2.3 2s-2.1-.9-2.3-2H8.1C7.9 2 7 2.9 5.8 2.9c-1.1 0-2.1-.9-2.3-2H.8v15.2z" id="Path_3_"/></g></g></g></g></svg>