<svg version="1.1" id="Layer_1" xmlns="http://www.w3.org/2000/svg" x="0" y="0" viewBox="0 0 24 24" xml:space="preserve"><style>.st0{fill:#a2a2a2}</style><g id="Symbols"><g id="Element_x2F_style-list-01" transform="translate(-17 -21)"><g id="gift-2" transform="translate(18 22)"><path class="st0" d="M20.5 22.5h-19v-15h1v14h17v-14h1z" id="Path"/><path class="st0" d="M22.5 8.5h-23v-5h23v5zm-22-1h21v-3H.5v3z" id="Rectangle"/><path class="st0" d="M11.6 4.5H7C5.6 4.5 4.5 3.4 4.5 2S5.6-.5 7-.5c3.3 0 4.4 4.2 4.5 4.4l.1.6zM7 .5c-.8 0-1.5.7-1.5 1.5S6.2 3.5 7 3.5h3.3c-.4-1-1.4-3-3.3-3z" id="Path_1_"/><path class="st0" d="M15 4.5h-4.6l.2-.6c0-.2 1.2-4.4 4.5-4.4 1.4 0 2.5 1.1 2.5 2.5S16.4 4.5 15 4.5zm-3.3-1H15c.8 0 1.5-.7 1.5-1.5S15.8.5 15 .5c-1.9 0-2.9 2-3.3 3z" id="Path_2_"/><path class="st0" d="M13.5 22.5h-5v-19h1v18h3v-18h1z" id="Path_3_"/></g></g></g></svg>