<svg version="1.1" id="Layer_1" xmlns="http://www.w3.org/2000/svg" x="0" y="0" viewBox="0 0 23 24" xml:space="preserve"><style>.st0{fill:#878787}</style><g id="Symbols"><g id="Element_x2F_service-normal-11" transform="translate(-32 -24)"><g id="Group-5"><g id="handout" transform="translate(32 24)"><path class="st0" d="M17.8 12.5c-1.7 0-3.1-1.4-3.1-3.1 0-1.7 1.4-3.1 3.1-3.1s3.1 1.4 3.1 3.1c0 1.7-1.4 3.1-3.1 3.1zm0-5.2c-1.2 0-2.1.9-2.1 2.1 0 1.2.9 2.1 2.1 2.1 1.2 0 2.1-.9 2.1-2.1 0-1.2-1-2.1-2.1-2.1z" id="Oval"/><path class="st0" d="M9.4 6.2c-1.7 0-3.1-1.4-3.1-3.1C6.3 1.4 7.7 0 9.4 0s3.1 1.4 3.1 3.1c0 1.7-1.4 3.1-3.1 3.1zm0-5.2C8.2 1 7.3 2 7.3 3.1c0 1.2.9 2.1 2.1 2.1 1.2 0 2.1-.9 2.1-2.1C11.5 2 10.6 1 9.4 1z" id="Oval_1_"/><path class="st0" d="M9.1 23.7c-.6 0-1.1-.1-1.6-.4L0 19.6v-8.1h1.5c1.1 0 4.1.4 5.5 2.1h2.9c1.6 0 3.1.8 3.9 2.1h5.5c3.4 0 3.6 2.5 3.6 2.5v.4l-12.7 4.9c-.3.1-.7.2-1.1.2zM1 19l6.8 3.4c.7.3 1.4.4 2.1.1l12-4.5c-.2-.5-.8-1.3-2.5-1.3h-5c.2.5.3 1 .3 1.6v.5H6.8v-1h6.8c-.2-1.8-1.8-3.2-3.6-3.2H6.5l-.1-.2c-1-1.4-3.7-1.9-4.8-1.9H1V19z" id="Path"/></g></g></g></g></svg>