<svg version="1.1" id="Layer_1" xmlns="http://www.w3.org/2000/svg" x="0" y="0" viewBox="0 0 23 23" xml:space="preserve"><style>.st0{fill:#3f3f3f}</style><g id="Symbols"><g id="Element_x2F_service-normal" transform="translate(-32 -26)"><g id="Group-2"><g id="Group"><g id="multiple-11" transform="translate(32 26)"><path class="st0" d="M3.5 7C2.1 7 1 5.9 1 4.5S2.1 2 3.5 2 6 3.1 6 4.5 4.9 7 3.5 7zm0-4C2.7 3 2 3.7 2 4.5S2.7 6 3.5 6 5 5.3 5 4.5 4.3 3 3.5 3z" id="Path"/><path class="st0" d="M6 21H2v-4H0v-5.5C0 10.1 1.1 9 2.5 9H4v1H2.5c-.8 0-1.5.7-1.5 1.5V16h2v4h3v1z" id="Path_1_"/><path class="st0" d="M19.5 7C18.1 7 17 5.9 17 4.5S18.1 2 19.5 2 22 3.1 22 4.5 20.9 7 19.5 7zm0-4c-.8 0-1.5.7-1.5 1.5S18.7 6 19.5 6 21 5.3 21 4.5 20.3 3 19.5 3z" id="Path_2_"/><path class="st0" d="M21 21h-4v-1h3v-4h2v-4.5c0-.8-.7-1.5-1.5-1.5H19V9h1.5c1.4 0 2.5 1.1 2.5 2.5V17h-2v4z" id="Path_3_"/><path class="st0" d="M11.5 7C9.6 7 8 5.4 8 3.5S9.6 0 11.5 0 15 1.6 15 3.5 13.4 7 11.5 7zm0-6C10.1 1 9 2.1 9 3.5S10.1 6 11.5 6 14 4.9 14 3.5 12.9 1 11.5 1z" id="Path_4_"/><path class="st0" d="M15 23H8v-6H6v-5.5C6 10.1 7.1 9 8.5 9h6c1.4 0 2.5 1.1 2.5 2.5V18h-2v5zm-6-1h5v-5h2v-5.5c0-.8-.7-1.5-1.5-1.5h-6c-.8 0-1.5.7-1.5 1.5V16h2v6z" id="Path_5_"/></g></g></g></g></g></svg>