<svg version="1.1" id="Layer_1" xmlns="http://www.w3.org/2000/svg" x="0" y="0" viewBox="0 0 21 23" xml:space="preserve"><style>.st0{fill:#3f3f3f}</style><g id="Symbols"><g id="Element_x2F_service-normal-08" transform="translate(-32 -25)"><g id="notes" transform="translate(32 25)"><path class="st0" d="M21 23H0V3h3v1H1v18h19V4h-2V3h3z" id="Path"/><path class="st0" d="M16 7H5V2h3.1c.2-1.1 1.2-2 2.4-2s2.2.9 2.5 2h3v5zM6 6h9V3h-3v-.5c0-.8-.7-1.5-1.5-1.5S9 1.7 9 2.5V3H6v3zm7-3.5z" id="Path_1_"/><path class="st0" d="M5 10h11v1H5z" id="Path_2_"/><path class="st0" d="M5 14h11v1H5z" id="Path_3_"/><path class="st0" d="M5 18h5v1H5z" id="Path_4_"/></g></g></g></svg>