<svg version="1.1" id="Layer_1" xmlns="http://www.w3.org/2000/svg" x="0" y="0" viewBox="0 0 23 23" xml:space="preserve"><style>.st0{fill:#795e00}</style><g id="Design"><g id="Home" transform="translate(-32 -436)"><g id="Icons_x2F_tech" transform="translate(32 437)"><g id="barcode-qr" transform="translate(1)"><path class="st0" d="M9.2 9.2H0V0h9.2v9.2zM1 8.2h7.2V1H1v7.2z" id="Path"/><path class="st0" d="M21 9.2h-9.2V0H21v9.2zm-8.2-1H20V1h-7.2v7.2z" id="Path_1_"/><path class="st0" d="M9.2 21H0v-9.2h9.2V21zM1 20h7.2v-7.2H1V20z" id="Path_2_"/><path class="st0" d="M21 17.4h-1v-4.6h-2.6v2.8h-4.7v-3.8h1v2.8h2.7v-2.8H21z" id="Path_3_"/><path class="st0" d="M21 21h-8.3v-2.8h1V20H21z" id="Path_4_"/><path class="st0" d="M3.6 3.6h1.9v1.9H3.6z" id="Path_5_"/><path class="st0" d="M15.5 3.6h1.9v1.9h-1.9z" id="Path_6_"/><path class="st0" d="M3.6 15.5h1.9v1.9H3.6z" id="Path_7_"/></g></g></g></g></svg>