<svg version="1.1" id="Layer_1" xmlns="http://www.w3.org/2000/svg" x="0" y="0" viewBox="0 0 21 23" xml:space="preserve"><style>.st0{fill:#878787}</style><g id="Symbols"><g id="Element_x2F_service-normal-13" transform="translate(-33 -24)"><g id="Group-5"><g id="single-01" transform="translate(33 24)"><path class="st0" d="M10.5 12C7.5 12 5 9.5 5 6.5v-1C5 2.5 7.5 0 10.5 0S16 2.5 16 5.5v1c0 3-2.5 5.5-5.5 5.5zm0-11C8 1 6 3 6 5.5v1C6 9 8 11 10.5 11S15 9 15 6.5v-1C15 3 13 1 10.5 1z" id="Path"/><path class="st0" d="M21 23H0v-2.6c0-2 1.4-3.8 3.3-4.3 1.8-.5 4.5-1.1 7.2-1.1s5.4.6 7.2 1.1c1.9.5 3.3 2.3 3.3 4.3V23zM1 22h19v-1.6c0-1.6-1.1-3-2.6-3.4-1.7-.5-4.3-1-6.9-1s-5.2.6-6.9 1c-1.5.4-2.6 1.8-2.6 3.4V22z" id="Path_1_"/></g></g></g></g></svg>