<svg version="1.1" id="Layer_1" xmlns="http://www.w3.org/2000/svg" x="0" y="0" viewBox="0 0 23 23" xml:space="preserve"><style>.st0{fill:#3f3f3f}</style><g id="Symbols"><g id="Element_x2F_service-normal-04" transform="translate(-35 -26)"><g id="wallet-43" transform="translate(35 26)"><path class="st0" d="M21 23H3.5C1.6 23 0 21.4 0 19.5v-17h1C1 3.3 1.7 4 2.5 4H21v8h-1V5H2.5c-.6 0-1.1-.2-1.5-.5v15C1 20.9 2.1 22 3.5 22H20v-7h1v8z" id="Path"/><path class="st0" d="M3 5h-.5C1.1 5 0 3.9 0 2.5S1.1 0 2.5 0H17v2h-1V1H2.5C1.7 1 1 1.7 1 2.5S1.7 4 2.5 4H3v1z" id="Path_1_"/><path class="st0" d="M23 16h-5.5c-1.4 0-2.5-1.1-2.5-2.5s1.1-2.5 2.5-2.5H23v5zm-5.5-4c-.8 0-1.5.7-1.5 1.5s.7 1.5 1.5 1.5H22v-3h-4.5z" id="Path_2_"/></g></g></g></svg>